<?xml version="1.0" encoding="utf-8"?>
<!-- Generator: Adobe Illustrator 16.0.0, SVG Export Plug-In . SVG Version: 6.00 Build 0)  -->
<!DOCTYPE svg PUBLIC "-//W3C//DTD SVG 1.1//EN" "http://www.w3.org/Graphics/SVG/1.1/DTD/svg11.dtd">
<svg version="1.1" id="Layer_1" xmlns="http://www.w3.org/2000/svg" xmlns:xlink="http://www.w3.org/1999/xlink" x="0px" y="0px"
	 width="153.407px" height="102.292px" viewBox="0 0 153.407 102.292" enable-background="new 0 0 153.407 102.292"
	 xml:space="preserve">
<g>
	<path fill="#FFFFFF" d="M144.671,51.442c-5.395-5.396-12.844-8.736-21.057-8.736c-1.304,0-2.59,0.09-3.858,0.251
		c-0.423-1.68-0.933-3.34-1.549-4.965c-0.104-0.272-0.208-0.534-0.315-0.783c-3.424-8.536-9.389-15.822-17.104-20.854
		c-7.241-4.722-15.694-7.251-24.341-7.276C51.696,8.998,31.566,29,31.488,53.752c-0.002,0.476,0.018,0.947,0.031,1.419
		c-2.659-1.099-5.502-1.669-8.408-1.669C10.366,53.502,0,64.444,0,77.897c0,6.965,2.779,13.258,7.228,17.707
		c4.144,4.143,9.737,6.688,15.883,6.688h100.504c16.428,0,29.793-13.364,29.793-29.793
		C153.407,64.286,150.066,56.836,144.671,51.442z"/>
	<path fill="#FFFFFF" d="M66.556,17.403c-1.008,0-1.993,0.119-2.951,0.323c-0.383-1.777-0.956-3.511-1.758-5.149
		C58.458,5.286,51.196,0.407,43.128,0.036c-0.04-0.002-0.081-0.009-0.122-0.01c-0.083-0.006-0.164,0-0.248-0.002
		C42.555,0.017,42.351,0,42.146,0c-0.104,0-0.205,0.013-0.311,0.014c-11.87-0.092-21.867,9.108-22.58,21.094
		c-0.062,1.027-0.052,2.056,0.028,3.081c-1.456-0.776-3.077-1.198-4.741-1.198c-5.841,0-10.592,5.048-10.592,11.254
		c0,6.208,4.751,11.256,10.592,11.256h52.014c7.746,0,14.048-6.301,14.048-14.048C80.604,23.706,74.302,17.403,66.556,17.403z"/>
</g>
</svg>
