<?xml version="1.0" encoding="utf-8"?>
<!-- Generator: Adobe Illustrator 16.0.0, SVG Export Plug-In . SVG Version: 6.00 Build 0)  -->
<!DOCTYPE svg PUBLIC "-//W3C//DTD SVG 1.1//EN" "http://www.w3.org/Graphics/SVG/1.1/DTD/svg11.dtd">
<svg version="1.1" id="Layer_1" xmlns="http://www.w3.org/2000/svg" xmlns:xlink="http://www.w3.org/1999/xlink" x="0px" y="0px"
	 width="140.366px" height="127.354px" viewBox="0 0 140.366 127.354" enable-background="new 0 0 140.366 127.354"
	 xml:space="preserve">
<g>
	<linearGradient id="SVGID_1_" gradientUnits="userSpaceOnUse" x1="66.0054" y1="83.9399" x2="66.0054" y2="114.1665">
		<stop  offset="0.0667" style="stop-color:#FCA800"/>
		<stop  offset="0.1052" style="stop-color:#FCB707"/>
		<stop  offset="0.1921" style="stop-color:#FCD314"/>
		<stop  offset="0.2424" style="stop-color:#FCDD19"/>
	</linearGradient>
	<path fill="url(#SVGID_1_)" d="M77.172,100.696l-12.435-0.098L76.222,83.94H61.381l-6.951,20.693
		c-0.041,0.131-0.017,0.273,0.063,0.383c0.081,0.112,0.21,0.177,0.349,0.18l14.619,0.139c0.137,0,0.266,0.066,0.348,0.178
		c0.08,0.11,0.104,0.254,0.063,0.386l-6.396,20.322c-0.095,0.299,0.057,0.618,0.345,0.738c0.29,0.117,0.622-0.006,0.765-0.282
		l12.969-25.352c0.066-0.133,0.062-0.293-0.017-0.422S77.323,100.696,77.172,100.696z"/>
	<linearGradient id="SVGID_2_" gradientUnits="userSpaceOnUse" x1="33.5176" y1="83.9399" x2="33.5176" y2="113.2329">
		<stop  offset="0.0667" style="stop-color:#FCA800"/>
		<stop  offset="0.1052" style="stop-color:#FCB707"/>
		<stop  offset="0.1921" style="stop-color:#FCD314"/>
		<stop  offset="0.2424" style="stop-color:#FCDD19"/>
	</linearGradient>
	<path fill="url(#SVGID_2_)" d="M41.013,94.253l-7.302-0.07l8.863-10.243H30.471h-0.017l-5.966,14.239
		c-0.049,0.133-0.031,0.281,0.047,0.397c0.082,0.117,0.214,0.188,0.355,0.188l9.102,0.114c0.141,0.002,0.271,0.07,0.353,0.186
		c0.078,0.113,0.099,0.261,0.054,0.393l-4.683,13.184c-0.076,0.215,0.023,0.452,0.229,0.55c0.205,0.097,0.451,0.022,0.568-0.173
		l10.866-18.107c0.081-0.134,0.083-0.299,0.008-0.436C41.311,94.34,41.169,94.254,41.013,94.253z"/>
	<linearGradient id="SVGID_3_" gradientUnits="userSpaceOnUse" x1="99.4424" y1="83.9399" x2="99.4424" y2="113.2329">
		<stop  offset="0.0667" style="stop-color:#FCA800"/>
		<stop  offset="0.1052" style="stop-color:#FCB707"/>
		<stop  offset="0.1921" style="stop-color:#FCD314"/>
		<stop  offset="0.2424" style="stop-color:#FCDD19"/>
	</linearGradient>
	<path fill="url(#SVGID_3_)" d="M106.936,94.253l-7.3-0.07L108.5,83.94H96.396h-0.017l-5.967,14.239
		c-0.051,0.133-0.033,0.281,0.049,0.397c0.081,0.117,0.211,0.188,0.352,0.188l9.104,0.114c0.14,0.002,0.271,0.07,0.352,0.186
		c0.08,0.113,0.102,0.261,0.053,0.393l-4.681,13.184c-0.077,0.215,0.024,0.452,0.229,0.55c0.205,0.097,0.451,0.022,0.568-0.173
		l10.866-18.107c0.08-0.134,0.081-0.299,0.005-0.436C107.233,94.34,107.09,94.254,106.936,94.253z"/>
</g>
<path fill="#FFFFFF" d="M132.374,38.771c-4.939-4.938-11.756-7.996-19.272-7.996c-1.192,0-2.37,0.083-3.531,0.231
	c-0.385-1.537-0.853-3.056-1.418-4.543c-0.095-0.25-0.189-0.489-0.288-0.716c-3.133-7.812-8.591-14.48-15.652-19.088
	C85.584,2.338,77.85,0.026,69.938,0C47.284-0.072,28.862,18.232,28.791,40.885c-0.002,0.438,0.016,0.867,0.027,1.3
	c-2.434-1.004-5.035-1.53-7.694-1.53c-11.662,0-21.15,10.016-21.15,22.326c0,6.374,2.543,12.133,6.614,16.205
	c3.793,3.793,8.913,6.122,14.536,6.122h91.978c15.033,0,27.265-12.232,27.265-27.267C140.366,50.524,137.311,43.707,132.374,38.771z
	"/>
</svg>
