<?xml version="1.0" encoding="utf-8"?>
<!-- Generator: Adobe Illustrator 16.0.0, SVG Export Plug-In . SVG Version: 6.00 Build 0)  -->
<!DOCTYPE svg PUBLIC "-//W3C//DTD SVG 1.1//EN" "http://www.w3.org/Graphics/SVG/1.1/DTD/svg11.dtd">
<svg version="1.1" id="Layer_1" xmlns="http://www.w3.org/2000/svg" xmlns:xlink="http://www.w3.org/1999/xlink" x="0px" y="0px"
	 width="166.005px" height="96.822px" viewBox="0 0 166.005 96.822" enable-background="new 0 0 166.005 96.822"
	 xml:space="preserve">
<g>
	<path fill="#FFFFFF" d="M126.105,43.197c-4.701-4.703-11.193-7.616-18.354-7.616c-1.139,0-2.26,0.079-3.364,0.219
		c-0.37-1.463-0.814-2.91-1.351-4.326c-0.088-0.239-0.182-0.465-0.276-0.682c-2.985-7.441-8.182-13.794-14.905-18.18
		C81.541,8.497,74.172,6.293,66.636,6.27c-21.575-0.07-39.121,17.365-39.192,38.939c0,0.416,0.017,0.827,0.03,1.238
		c-2.32-0.957-4.797-1.455-7.33-1.455C9.037,44.992,0,54.53,0,66.256c0,6.07,2.422,11.557,6.3,15.436
		c3.612,3.611,8.486,5.83,13.845,5.83h87.607c14.316,0,25.969-11.648,25.969-25.971C133.72,54.392,130.808,47.9,126.105,43.197z"/>
	<g>
		<g>
			<path fill="#F9D720" d="M91.682,8.971C91.167,8.113,91.44,6.997,92.3,6.48c0.854-0.519,1.973-0.243,2.489,0.616l5.958,9.878
				c-1.066,0.572-2.103,1.199-3.104,1.875L91.682,8.971z"/>
			<path fill="#F9D720" d="M78.452,22.053l9.321,6.809c0.664-1.015,1.375-1.996,2.136-2.933l-9.316-6.806
				c-0.808-0.593-1.943-0.415-2.536,0.393C77.466,20.325,77.642,21.46,78.452,22.053z"/>
			<path fill="#F9D720" d="M71.383,38.846l11.21,2.773c0.225-1.147,0.504-2.292,0.846-3.427c0.009-0.031,0.02-0.063,0.028-0.094
				l-11.211-2.776c-0.975-0.241-1.959,0.355-2.198,1.327C69.818,37.62,70.412,38.604,71.383,38.846z"/>
			<path fill="#F9D720" d="M110.329,13.502c1.179-0.242,2.374-0.432,3.587-0.556l-1.774-11.41c-0.154-0.989-1.077-1.668-2.071-1.514
				c-0.99,0.154-1.668,1.082-1.514,2.071L110.329,13.502z"/>
			<path fill="#F9D720" d="M149.011,31.578l9.899-5.973c0.856-0.519,1.134-1.633,0.616-2.491c-0.52-0.858-1.633-1.133-2.49-0.615
				l-9.887,5.964C147.828,29.47,148.443,30.513,149.011,31.578z"/>
			<path fill="#F9D720" d="M140.062,20.744l6.822-9.335c0.592-0.809,0.416-1.944-0.395-2.536c-0.808-0.59-1.942-0.414-2.535,0.396
				l-6.826,9.34C138.14,19.268,139.12,19.981,140.062,20.744z"/>
			<path fill="#F9D720" d="M82.117,52.094l-11.396,1.773c-0.99,0.154-1.669,1.081-1.516,2.07c0.14,0.896,0.912,1.535,1.791,1.535
				c0.093,0,0.187-0.006,0.281-0.021l11.404-1.773C82.432,54.492,82.242,53.297,82.117,52.094z"/>
			<path fill="#F9D720" d="M127.905,14.297l2.777-11.227c0.242-0.973-0.353-1.957-1.325-2.198c-0.975-0.241-1.957,0.353-2.195,1.326
				l-2.777,11.228C125.572,13.659,126.75,13.945,127.905,14.297z"/>
			<path fill="#F9D720" d="M95.113,76.102l-6.806,9.312c-0.591,0.807-0.415,1.943,0.395,2.533c0.323,0.237,0.696,0.352,1.069,0.352
				c0.558,0,1.109-0.258,1.465-0.744l6.809-9.318C97.033,77.573,96.052,76.863,95.113,76.102z"/>
			<path fill="#F9D720" d="M163.807,57.976l-11.222-2.776c-0.223,1.148-0.488,2.292-0.826,3.424
				c-0.01,0.035-0.022,0.068-0.033,0.101l11.209,2.776c0.146,0.034,0.293,0.053,0.437,0.053c0.814,0,1.556-0.553,1.761-1.38
				C165.373,59.201,164.779,58.218,163.807,57.976z"/>
			<path fill="#F9D720" d="M156.739,74.77l-9.343-6.827c-0.67,1.013-1.389,1.985-2.154,2.921l9.355,6.836
				c0.324,0.235,0.697,0.349,1.069,0.349c0.558,0,1.11-0.258,1.467-0.741C157.724,76.495,157.546,75.361,156.739,74.77z"/>
			<path fill="#F9D720" d="M86.22,65.34c-0.016-0.03-0.03-0.062-0.045-0.092l-9.895,5.971c-0.856,0.517-1.133,1.633-0.616,2.489
				c0.342,0.565,0.941,0.877,1.558,0.877c0.317,0,0.641-0.083,0.934-0.261l9.888-5.965C87.39,67.388,86.783,66.382,86.22,65.34z"/>
			<path fill="#F9D720" d="M165.984,40.885c-0.152-0.988-1.076-1.669-2.071-1.514l-11.435,1.779c0.246,1.186,0.435,2.38,0.559,3.584
				l11.434-1.779C165.46,42.801,166.136,41.875,165.984,40.885z"/>
			<path fill="#F9D720" d="M107.382,82.566c-0.032-0.009-0.065-0.02-0.098-0.029l-2.776,11.213
				c-0.241,0.972,0.353,1.956,1.325,2.197c0.146,0.037,0.293,0.055,0.438,0.055c0.814,0,1.554-0.554,1.758-1.381l2.775-11.215
				C109.654,83.182,108.513,82.906,107.382,82.566z"/>
			<path fill="#F9D720" d="M137.517,77.919c-1.002,0.676-2.039,1.305-3.104,1.877l5.988,9.931c0.34,0.562,0.94,0.877,1.555,0.877
				c0.319,0,0.644-0.085,0.936-0.262c0.858-0.518,1.135-1.634,0.616-2.492L137.517,77.919z"/>
			<path fill="#F9D720" d="M124.861,83.311c-1.18,0.248-2.375,0.431-3.586,0.56l1.775,11.415c0.139,0.896,0.912,1.537,1.789,1.537
				c0.096,0,0.189-0.007,0.283-0.022c0.99-0.153,1.666-1.081,1.514-2.071L124.861,83.311z"/>
		</g>
		<radialGradient id="SVGID_1_" cx="117.5933" cy="48.4102" r="31.873" gradientUnits="userSpaceOnUse">
			<stop  offset="0" style="stop-color:#FCCB05"/>
			<stop  offset="0.509" style="stop-color:#FCD20D"/>
			<stop  offset="0.9879" style="stop-color:#FCDD19"/>
		</radialGradient>
		<path fill="url(#SVGID_1_)" d="M148.136,57.539c2.908-9.733,0.973-20.365-5.183-28.448c-0.856-1.122-1.784-2.182-2.776-3.172
			c-6.146-6.147-14.697-9.627-23.48-9.371c-13.776,0.39-25.686,9.524-29.635,22.727c-3.472,11.611,0.018,23.68,8.04,31.702
			c3.612,3.612,8.14,6.402,13.367,7.966c2.979,0.892,6.056,1.343,9.144,1.343c0.002,0,0.002,0,0.002,0
			C131.58,80.286,144.13,70.934,148.136,57.539z"/>
	</g>
</g>
</svg>
