<?xml version="1.0" encoding="utf-8"?>
<!-- Generator: Adobe Illustrator 16.0.0, SVG Export Plug-In . SVG Version: 6.00 Build 0)  -->
<!DOCTYPE svg PUBLIC "-//W3C//DTD SVG 1.1//EN" "http://www.w3.org/Graphics/SVG/1.1/DTD/svg11.dtd">
<svg version="1.1" id="Layer_1" xmlns="http://www.w3.org/2000/svg" xmlns:xlink="http://www.w3.org/1999/xlink" x="0px" y="0px"
	 width="133.557px" height="130.264px" viewBox="0 0 133.557 130.264" enable-background="new 0 0 133.557 130.264"
	 xml:space="preserve">
<g>
	<linearGradient id="SVGID_1_" gradientUnits="userSpaceOnUse" x1="32.1426" y1="80.8325" x2="32.1426" y2="121.5806">
		<stop  offset="0" style="stop-color:#3C8EBA"/>
		<stop  offset="0.0492" style="stop-color:#519EC7"/>
		<stop  offset="0.1507" style="stop-color:#88C6E7"/>
		<stop  offset="0.2121" style="stop-color:#ACE1FC"/>
	</linearGradient>
	<path fill="url(#SVGID_1_)" d="M32.145,121.581c-1.274,0-2.31-1.032-2.31-2.307V83.139c0-1.273,1.035-2.307,2.31-2.307
		c1.273,0,2.306,1.033,2.306,2.307v36.135C34.45,120.548,33.418,121.581,32.145,121.581z"/>
	<linearGradient id="SVGID_2_" gradientUnits="userSpaceOnUse" x1="101.4106" y1="80.8325" x2="101.4106" y2="125.8071">
		<stop  offset="0" style="stop-color:#3C8EBA"/>
		<stop  offset="0.0492" style="stop-color:#519EC7"/>
		<stop  offset="0.1507" style="stop-color:#88C6E7"/>
		<stop  offset="0.2121" style="stop-color:#ACE1FC"/>
	</linearGradient>
	<path fill="url(#SVGID_2_)" d="M103.719,123.5l-0.002-40.36c0-1.273-1.033-2.307-2.307-2.307s-2.309,1.033-2.309,2.307l0.002,40.36
		c0,1.274,1.033,2.308,2.309,2.308S103.719,124.772,103.719,123.5z"/>
	<linearGradient id="SVGID_3_" gradientUnits="userSpaceOnUse" x1="73.7036" y1="80.8325" x2="73.7036" y2="130.2642">
		<stop  offset="0" style="stop-color:#3C8EBA"/>
		<stop  offset="0.0492" style="stop-color:#519EC7"/>
		<stop  offset="0.1507" style="stop-color:#88C6E7"/>
		<stop  offset="0.2121" style="stop-color:#ACE1FC"/>
	</linearGradient>
	<path fill="url(#SVGID_3_)" d="M76.01,127.957V83.139c0-1.273-1.033-2.307-2.307-2.307s-2.307,1.033-2.307,2.307v44.817
		c0,1.274,1.033,2.308,2.307,2.308S76.01,129.231,76.01,127.957z"/>
	<linearGradient id="SVGID_4_" gradientUnits="userSpaceOnUse" x1="45.9971" y1="80.8325" x2="45.9971" y2="112.9126">
		<stop  offset="0" style="stop-color:#3C8EBA"/>
		<stop  offset="0.0492" style="stop-color:#519EC7"/>
		<stop  offset="0.1507" style="stop-color:#88C6E7"/>
		<stop  offset="0.2121" style="stop-color:#ACE1FC"/>
	</linearGradient>
	<path fill="url(#SVGID_4_)" d="M48.305,110.606V83.139c0-1.273-1.033-2.307-2.309-2.307c-1.273,0-2.307,1.033-2.307,2.307v27.467
		c0,1.274,1.033,2.307,2.307,2.307C47.271,112.913,48.305,111.88,48.305,110.606z"/>
	<path fill="#ACE1FC" d="M89.864,121.935v-15.892c0-1.273-1.031-2.307-2.307-2.307s-2.309,1.033-2.309,2.307v15.892
		c0,1.274,1.033,2.308,2.309,2.308S89.864,123.209,89.864,121.935z"/>
	<path fill="#ACE1FC" d="M62.157,120.668v-15.893c0-1.273-1.032-2.307-2.306-2.307c-1.275,0-2.31,1.033-2.31,2.307v15.893
		c0,1.275,1.034,2.308,2.31,2.308C61.125,122.976,62.157,121.944,62.157,120.668z"/>
	<g>
		<linearGradient id="SVGID_5_" gradientUnits="userSpaceOnUse" x1="62.8159" y1="79.5317" x2="62.8159" y2="108.2859">
			<stop  offset="0.0667" style="stop-color:#FCA800"/>
			<stop  offset="0.1052" style="stop-color:#FCB707"/>
			<stop  offset="0.1921" style="stop-color:#FCD314"/>
			<stop  offset="0.2424" style="stop-color:#FCDD19"/>
		</linearGradient>
		<path fill="url(#SVGID_5_)" d="M73.438,95.471L61.61,95.377l10.925-15.846H58.418l-6.615,19.685
			c-0.037,0.124-0.016,0.261,0.062,0.366c0.077,0.105,0.198,0.167,0.332,0.168l13.907,0.133c0.13,0,0.251,0.062,0.329,0.17
			c0.077,0.105,0.099,0.242,0.062,0.365l-6.085,19.334c-0.09,0.283,0.053,0.588,0.329,0.702c0.275,0.112,0.592-0.006,0.726-0.27
			l12.338-24.114c0.062-0.127,0.061-0.279-0.016-0.403C73.713,95.547,73.584,95.471,73.438,95.471z"/>
		<linearGradient id="SVGID_6_" gradientUnits="userSpaceOnUse" x1="31.9111" y1="79.5317" x2="31.9111" y2="107.3979">
			<stop  offset="0.0667" style="stop-color:#FCA800"/>
			<stop  offset="0.1052" style="stop-color:#FCB707"/>
			<stop  offset="0.1921" style="stop-color:#FCD314"/>
			<stop  offset="0.2424" style="stop-color:#FCDD19"/>
		</linearGradient>
		<path fill="url(#SVGID_6_)" d="M39.039,89.341l-6.946-0.065l8.435-9.744H29.012h-0.016l-5.675,13.545
			c-0.047,0.127-0.031,0.268,0.043,0.378c0.077,0.111,0.205,0.179,0.338,0.18l8.66,0.108c0.134,0.002,0.258,0.066,0.335,0.177
			c0.074,0.108,0.093,0.248,0.05,0.374l-4.454,12.542c-0.071,0.204,0.021,0.429,0.217,0.522c0.195,0.092,0.431,0.02,0.543-0.164
			l10.336-17.227c0.078-0.127,0.078-0.285,0.007-0.414S39.188,89.344,39.039,89.341z"/>
		<linearGradient id="SVGID_7_" gradientUnits="userSpaceOnUse" x1="94.6235" y1="79.5317" x2="94.6235" y2="107.3979">
			<stop  offset="0.0667" style="stop-color:#FCA800"/>
			<stop  offset="0.1052" style="stop-color:#FCB707"/>
			<stop  offset="0.1921" style="stop-color:#FCD314"/>
			<stop  offset="0.2424" style="stop-color:#FCDD19"/>
		</linearGradient>
		<path fill="url(#SVGID_7_)" d="M101.752,89.341l-6.943-0.065l8.432-9.744H91.725h-0.016l-5.674,13.545
			c-0.051,0.127-0.031,0.268,0.045,0.378c0.078,0.111,0.203,0.179,0.336,0.18l8.66,0.108c0.133,0.002,0.258,0.066,0.334,0.177
			c0.074,0.108,0.096,0.248,0.051,0.374l-4.455,12.542c-0.07,0.204,0.025,0.429,0.221,0.522c0.195,0.092,0.428,0.02,0.539-0.164
			l10.338-17.227c0.076-0.127,0.076-0.285,0.006-0.414C102.038,89.424,101.901,89.344,101.752,89.341z"/>
	</g>
	<path fill="#727272" d="M125.954,36.562c-4.699-4.699-11.184-7.606-18.334-7.606c-1.135,0-2.256,0.077-3.359,0.22
		c-0.365-1.463-0.812-2.907-1.348-4.324c-0.09-0.237-0.18-0.465-0.277-0.68c-2.979-7.432-8.17-13.776-14.889-18.159
		c-6.305-4.11-13.664-6.311-21.19-6.335C45.006-0.392,27.48,17.022,27.412,38.572c0,0.417,0.016,0.825,0.028,1.237
		c-2.315-0.956-4.792-1.455-7.321-1.455C9.025,38.354,0,47.881,0,59.592c0,6.064,2.418,11.542,6.292,15.417
		c3.608,3.608,8.478,5.824,13.827,5.824h87.5c14.303,0,25.938-11.637,25.938-25.94C133.557,47.742,130.651,41.258,125.954,36.562z"
		/>
</g>
</svg>
