<?xml version="1.0" encoding="utf-8"?>
<!-- Generator: Adobe Illustrator 16.0.0, SVG Export Plug-In . SVG Version: 6.00 Build 0)  -->
<!DOCTYPE svg PUBLIC "-//W3C//DTD SVG 1.1//EN" "http://www.w3.org/Graphics/SVG/1.1/DTD/svg11.dtd">
<svg version="1.1" id="Layer_1" xmlns="http://www.w3.org/2000/svg" xmlns:xlink="http://www.w3.org/1999/xlink" x="0px" y="0px"
	 width="133.558px" height="130.587px" viewBox="0 0 133.558 130.587" enable-background="new 0 0 133.558 130.587"
	 xml:space="preserve">
<g>
	<linearGradient id="SVGID_1_" gradientUnits="userSpaceOnUse" x1="32.1426" y1="81.1548" x2="32.1426" y2="121.9038">
		<stop  offset="0" style="stop-color:#3C8EBA"/>
		<stop  offset="0.0492" style="stop-color:#519EC7"/>
		<stop  offset="0.1507" style="stop-color:#88C6E7"/>
		<stop  offset="0.2121" style="stop-color:#ACE1FC"/>
	</linearGradient>
	<path fill="url(#SVGID_1_)" d="M32.145,121.904c-1.274,0-2.31-1.032-2.31-2.307V83.463c0-1.275,1.035-2.309,2.31-2.309
		c1.273,0,2.306,1.033,2.306,2.309v36.134C34.45,120.872,33.418,121.904,32.145,121.904z"/>
	<linearGradient id="SVGID_2_" gradientUnits="userSpaceOnUse" x1="101.4111" y1="81.1548" x2="101.4111" y2="126.1313">
		<stop  offset="0" style="stop-color:#3C8EBA"/>
		<stop  offset="0.0492" style="stop-color:#519EC7"/>
		<stop  offset="0.1507" style="stop-color:#88C6E7"/>
		<stop  offset="0.2121" style="stop-color:#ACE1FC"/>
	</linearGradient>
	<path fill="url(#SVGID_2_)" d="M103.719,123.823l-0.001-40.359c0-1.275-1.034-2.309-2.308-2.309s-2.308,1.033-2.308,2.309
		l0.001,40.359c0,1.274,1.034,2.309,2.309,2.309C102.688,126.131,103.719,125.096,103.719,123.823z"/>
	<linearGradient id="SVGID_3_" gradientUnits="userSpaceOnUse" x1="73.7041" y1="81.1548" x2="73.7041" y2="130.5874">
		<stop  offset="0" style="stop-color:#3C8EBA"/>
		<stop  offset="0.0492" style="stop-color:#519EC7"/>
		<stop  offset="0.1507" style="stop-color:#88C6E7"/>
		<stop  offset="0.2121" style="stop-color:#ACE1FC"/>
	</linearGradient>
	<path fill="url(#SVGID_3_)" d="M76.011,128.28V83.463c0-1.275-1.034-2.309-2.308-2.309s-2.307,1.033-2.307,2.309v44.816
		c0,1.273,1.033,2.308,2.307,2.308S76.011,129.553,76.011,128.28z"/>
	<linearGradient id="SVGID_4_" gradientUnits="userSpaceOnUse" x1="45.9971" y1="81.1548" x2="45.9971" y2="113.2358">
		<stop  offset="0" style="stop-color:#3C8EBA"/>
		<stop  offset="0.0492" style="stop-color:#519EC7"/>
		<stop  offset="0.1507" style="stop-color:#88C6E7"/>
		<stop  offset="0.2121" style="stop-color:#ACE1FC"/>
	</linearGradient>
	<path fill="url(#SVGID_4_)" d="M48.305,110.929V83.463c0-1.275-1.033-2.309-2.309-2.309c-1.273,0-2.307,1.033-2.307,2.309v27.466
		c0,1.274,1.033,2.307,2.307,2.307C47.271,113.236,48.305,112.204,48.305,110.929z"/>
	<path fill="#ACE1FC" d="M89.864,122.258v-15.891c0-1.274-1.032-2.309-2.308-2.309s-2.308,1.034-2.308,2.309v15.891
		c0,1.274,1.032,2.309,2.308,2.309S89.864,123.533,89.864,122.258z"/>
	<path fill="#ACE1FC" d="M62.157,120.992V105.1c0-1.274-1.032-2.309-2.306-2.309c-1.275,0-2.31,1.034-2.31,2.309v15.892
		c0,1.274,1.034,2.308,2.31,2.308C61.125,123.299,62.157,122.266,62.157,120.992z"/>
	<g>
		<linearGradient id="SVGID_5_" gradientUnits="userSpaceOnUse" x1="62.8159" y1="79.854" x2="62.8159" y2="108.6089">
			<stop  offset="0.0667" style="stop-color:#FCA800"/>
			<stop  offset="0.1052" style="stop-color:#FCB707"/>
			<stop  offset="0.1921" style="stop-color:#FCD314"/>
			<stop  offset="0.2424" style="stop-color:#FCDD19"/>
		</linearGradient>
		<path fill="url(#SVGID_5_)" d="M73.438,95.793L61.61,95.702l10.926-15.848H58.418L51.803,99.54
			c-0.037,0.124-0.016,0.261,0.062,0.365c0.077,0.105,0.198,0.168,0.332,0.17l13.907,0.131c0.13,0,0.251,0.064,0.329,0.171
			c0.077,0.105,0.099,0.241,0.062,0.366l-6.085,19.334c-0.09,0.283,0.053,0.587,0.329,0.701c0.275,0.111,0.592-0.006,0.726-0.27
			l12.339-24.115c0.062-0.127,0.06-0.278-0.016-0.402C73.714,95.87,73.584,95.793,73.438,95.793z"/>
		<linearGradient id="SVGID_6_" gradientUnits="userSpaceOnUse" x1="31.9111" y1="79.854" x2="31.9111" y2="107.7202">
			<stop  offset="0.0667" style="stop-color:#FCA800"/>
			<stop  offset="0.1052" style="stop-color:#FCB707"/>
			<stop  offset="0.1921" style="stop-color:#FCD314"/>
			<stop  offset="0.2424" style="stop-color:#FCDD19"/>
		</linearGradient>
		<path fill="url(#SVGID_6_)" d="M39.039,89.665L32.093,89.6l8.435-9.746H29.012h-0.016l-5.675,13.545
			c-0.047,0.127-0.031,0.269,0.043,0.379c0.077,0.111,0.205,0.178,0.338,0.18l8.66,0.108c0.134,0.001,0.258,0.066,0.335,0.177
			c0.074,0.108,0.093,0.248,0.05,0.373l-4.454,12.543c-0.071,0.205,0.021,0.43,0.217,0.521s0.431,0.021,0.543-0.164l10.336-17.226
			c0.078-0.127,0.078-0.285,0.007-0.413C39.324,89.749,39.188,89.667,39.039,89.665z"/>
		<linearGradient id="SVGID_7_" gradientUnits="userSpaceOnUse" x1="94.624" y1="79.854" x2="94.624" y2="107.7202">
			<stop  offset="0.0667" style="stop-color:#FCA800"/>
			<stop  offset="0.1052" style="stop-color:#FCB707"/>
			<stop  offset="0.1921" style="stop-color:#FCD314"/>
			<stop  offset="0.2424" style="stop-color:#FCDD19"/>
		</linearGradient>
		<path fill="url(#SVGID_7_)" d="M101.753,89.665L94.81,89.6l8.431-9.746H91.726H91.71l-5.675,13.545
			c-0.05,0.127-0.031,0.269,0.046,0.379c0.077,0.111,0.202,0.178,0.335,0.18l8.66,0.108c0.133,0.001,0.258,0.066,0.335,0.177
			c0.074,0.108,0.096,0.248,0.05,0.373l-4.455,12.543c-0.07,0.205,0.025,0.43,0.221,0.521s0.428,0.021,0.539-0.164l10.338-17.226
			c0.077-0.127,0.077-0.285,0.006-0.413C102.038,89.749,101.901,89.667,101.753,89.665z"/>
	</g>
	<path fill="#FFFFFF" d="M125.954,36.885c-4.699-4.699-11.184-7.606-18.334-7.606c-1.135,0-2.257,0.077-3.36,0.22
		c-0.365-1.463-0.812-2.907-1.348-4.324c-0.09-0.237-0.18-0.465-0.276-0.68c-2.979-7.432-8.17-13.776-14.89-18.159
		C81.441,2.226,74.083,0.025,66.557,0C45.006-0.068,27.48,17.345,27.412,38.895c0,0.417,0.016,0.825,0.028,1.237
		c-2.315-0.956-4.792-1.455-7.321-1.455C9.025,38.677,0,48.205,0,59.915c0,6.064,2.418,11.542,6.292,15.417
		c3.608,3.607,8.478,5.824,13.827,5.824h87.501c14.302,0,25.938-11.638,25.938-25.941C133.558,48.065,130.65,41.581,125.954,36.885z
		"/>
</g>
</svg>
